<?xml version="1.0" standalone="no"?>
<!DOCTYPE svg PUBLIC "-//W3C//DTD SVG 20010904//EN"
 "http://www.w3.org/TR/2001/REC-SVG-20010904/DTD/svg10.dtd">
<svg version="1.0" xmlns="http://www.w3.org/2000/svg"
 width="512.000000pt" height="512.000000pt" viewBox="0 0 512.000000 512.000000"
 preserveAspectRatio="xMidYMid meet">
<metadata>
Created by potrace 1.16, written by Peter Selinger 2001-2019
</metadata>
<g transform="translate(0.000000,512.000000) scale(0.100000,-0.100000)"
fill="#000000" stroke="none">
<path d="M2100 4780 c-427 -91 -741 -393 -863 -828 -18 -67 -21 -103 -21 -272
0 -168 3 -206 22 -272 115 -418 402 -704 821 -821 65 -18 105 -21 266 -21 164
-1 202 2 276 21 396 101 711 410 814 797 104 388 -6 806 -285 1087 -162 164
-363 270 -590 313 -114 22 -330 20 -440 -4z m331 -315 c159 -13 338 -102 463
-228 235 -239 296 -602 151 -899 -82 -168 -201 -286 -370 -368 -122 -59 -212
-80 -345 -80 -128 0 -221 21 -335 74 -400 189 -568 661 -376 1061 76 160 212
293 376 371 111 52 269 87 350 78 11 -2 50 -5 86 -9z"/>
<path d="M2110 2363 c-718 -73 -1344 -508 -1664 -1157 -85 -172 -128 -310
-127 -410 0 -193 100 -349 279 -434 l77 -37 1370 -3 c1354 -2 1370 -2 1403 18
95 58 99 216 5 277 -26 17 -97 18 -1358 23 -1319 5 -1330 5 -1365 26 -48 28
-80 78 -80 125 0 48 39 157 101 280 207 414 585 741 1025 885 303 99 677 112
986 33 160 -40 277 -88 491 -203 79 -42 122 -45 181 -16 65 32 81 62 81 149
l0 73 -47 43 c-65 59 -302 175 -468 229 -146 48 -292 80 -435 96 -84 9 -376
11 -455 3z"/>
<path d="M3912 1900 c-18 -11 -41 -34 -52 -52 -19 -31 -20 -51 -20 -300 l0
-268 -267 0 c-250 0 -270 -1 -301 -20 -48 -30 -72 -75 -72 -140 0 -65 24 -110
72 -140 31 -19 51 -20 301 -20 l267 0 0 -267 c0 -250 1 -270 20 -301 30 -48
75 -72 140 -72 65 0 110 24 140 72 19 31 20 51 20 301 l0 267 268 0 c249 0
269 1 300 20 48 30 72 75 72 140 0 65 -24 110 -72 140 -31 19 -51 20 -300 20
l-268 0 0 268 c0 249 -1 269 -20 300 -11 18 -34 41 -52 52 -45 27 -131 27
-176 0z"/>
</g>
</svg>
