<svg width="37" height="22" viewBox="0 0 37 22" fill="none" xmlns="http://www.w3.org/2000/svg">
<path d="M34.6934 0.662289C35.7979 0.656223 36.6983 1.54672 36.7043 2.65128V2.65128C36.7104 3.75583 35.8199 4.65616 34.7154 4.66223L2.71584 4.83795C1.61129 4.84402 0.710951 3.95352 0.704885 2.84897V2.84897C0.698819 1.74441 1.58932 0.844079 2.69387 0.838013L34.6934 0.662289Z" fill="#4318FF"/>
<path d="M34.7401 9.16216C35.8446 9.1561 36.745 10.0466 36.751 11.1511V11.1511C36.7571 12.2557 35.8666 13.156 34.762 13.1621L2.76252 13.3378C1.65796 13.3439 0.757627 12.4534 0.751562 11.3488V11.3488C0.745496 10.2443 1.636 9.34395 2.74055 9.33788L34.7401 9.16216Z" fill="#4318FF"/>
<path d="M34.7799 17.1621C35.8845 17.156 36.7889 18.0465 36.7949 19.151V19.151C36.801 20.2556 35.9105 21.1559 34.806 21.162L2.80645 21.3377C1.70189 21.3438 0.801558 20.4533 0.795493 19.3487V19.3487C0.789427 18.2442 1.68398 17.3438 2.78853 17.3377C14.9681 17.2709 22.6003 17.2289 34.7799 17.1621Z" fill="#4318FF"/>
</svg>
